<?xml version="1.0" encoding="UTF-8" standalone="no"?><!DOCTYPE svg PUBLIC "-//W3C//DTD SVG 1.1//EN" "http://www.w3.org/Graphics/SVG/1.1/DTD/svg11.dtd"><!-- Generated by graphviz version 2.40.1 (20161225.0304)
 --><!-- Title: Automaton Pages: 1 --><svg xmlns="http://www.w3.org/2000/svg" xmlns:xlink="http://www.w3.org/1999/xlink" width="2578pt" height="879pt" viewBox="0.00 0.00 2578.38 879.17">
<g id="graph0" class="graph" transform="scale(1 1) rotate(0) translate(4 875.1717)">
<title>Automaton</title>
<polygon fill="#ffffff" stroke="transparent" points="-4,4 -4,-875.1717 2574.3802,-875.1717 2574.3802,4 -4,4"/>
<!-- 0 -->
<g id="node1" class="node">
<title>0</title>
<ellipse fill="none" stroke="#000000" cx="1948.2949" cy="-841.7561" rx="88.1706" ry="29.3315"/>
<text text-anchor="middle" x="1948.2949" y="-845.9561" font-family="Times,serif" font-size="14.00" fill="#000000">0</text>
<text text-anchor="middle" x="1948.2949" y="-829.1561" font-family="Times,serif" font-size="14.00" fill="#000000">$accept -&gt; . T $end</text>
</g>
<!-- 1 -->
<g id="node2" class="node">
<title>1</title>
<ellipse fill="none" stroke="#000000" cx="1120.2949" cy="-730.1248" rx="214.0901" ry="29.3315"/>
<text text-anchor="middle" x="1120.2949" y="-734.3248" font-family="Times,serif" font-size="14.00" fill="#000000">1</text>
<text text-anchor="middle" x="1120.2949" y="-717.5248" font-family="Times,serif" font-size="14.00" fill="#000000">STAG -&gt; START_TABLE . BODY END_TABLE</text>
</g>
<!-- 0&#45;&gt;1 -->
<g id="edge1" class="edge">
<title>0-&gt;1</title>
<path fill="none" stroke="#000000" d="M1866.2569,-830.6957C1731.1067,-812.4747 1459.1661,-775.8115 1283.6349,-752.1463"/>
<polygon fill="#000000" stroke="#000000" points="1283.901,-748.6506 1273.523,-750.7831 1282.9657,-755.5879 1283.901,-748.6506"/>
<text text-anchor="middle" x="1632.5109" y="-781.7404" font-family="Times,serif" font-size="14.00" fill="#000000">START_TABLE</text>
</g>
<!-- 2 -->
<g id="node3" class="node">
<title>2</title>
<ellipse fill="none" stroke="#000000" cx="1948.2949" cy="-730.1248" rx="88.1706" ry="29.3315"/>
<text text-anchor="middle" x="1948.2949" y="-734.3248" font-family="Times,serif" font-size="14.00" fill="#000000">2</text>
<text text-anchor="middle" x="1948.2949" y="-717.5248" font-family="Times,serif" font-size="14.00" fill="#000000">$accept -&gt; T . $end</text>
</g>
<!-- 0&#45;&gt;2 -->
<g id="edge2" class="edge">
<title>0-&gt;2</title>
<path fill="none" stroke="#000000" stroke-dasharray="5,2" d="M1948.2949,-812.134C1948.2949,-799.266 1948.2949,-783.9958 1948.2949,-770.141"/>
<polygon fill="#000000" stroke="#000000" points="1951.795,-769.8852 1948.2949,-759.8853 1944.795,-769.8853 1951.795,-769.8852"/>
<text text-anchor="middle" x="1952.5712" y="-781.7404" font-family="Times,serif" font-size="14.00" fill="#000000">T</text>
</g>
<!-- 3 -->
<g id="node4" class="node">
<title>3</title>
<ellipse fill="none" stroke="#000000" cx="2116.2949" cy="-730.1248" rx="61.9646" ry="29.3315"/>
<text text-anchor="middle" x="2116.2949" y="-734.3248" font-family="Times,serif" font-size="14.00" fill="#000000">3</text>
<text text-anchor="middle" x="2116.2949" y="-717.5248" font-family="Times,serif" font-size="14.00" fill="#000000">T -&gt; STAG .</text>
</g>
<!-- 0&#45;&gt;3 -->
<g id="edge3" class="edge">
<title>0-&gt;3</title>
<path fill="none" stroke="#000000" stroke-dasharray="5,2" d="M1988.1086,-815.301C2013.2154,-798.6183 2045.6844,-777.0435 2071.6622,-759.782"/>
<polygon fill="#000000" stroke="#000000" points="2073.8112,-762.5563 2080.2031,-754.1068 2069.9372,-756.726 2073.8112,-762.5563"/>
<text text-anchor="middle" x="2061.5691" y="-781.7404" font-family="Times,serif" font-size="14.00" fill="#000000">STAG</text>
</g>
<!-- 4 -->
<g id="node5" class="node">
<title>4</title>
<ellipse fill="none" stroke="#000000" cx="1120.2949" cy="-606.6141" rx="163.3785" ry="41.0911"/>
<text text-anchor="middle" x="1120.2949" y="-619.2141" font-family="Times,serif" font-size="14.00" fill="#000000">4</text>
<text text-anchor="middle" x="1120.2949" y="-602.4141" font-family="Times,serif" font-size="14.00" fill="#000000">BODY -&gt; STR . BODY1 ETR</text>
<text text-anchor="middle" x="1120.2949" y="-585.6141" font-family="Times,serif" font-size="14.00" fill="#000000">BODY -&gt; STR . BODY1 ETR BODY</text>
</g>
<!-- 1&#45;&gt;4 -->
<g id="edge4" class="edge">
<title>1-&gt;4</title>
<path fill="none" stroke="#000000" d="M1120.2949,-700.5409C1120.2949,-687.9068 1120.2949,-672.7804 1120.2949,-658.3955"/>
<polygon fill="#000000" stroke="#000000" points="1123.795,-658.0984 1120.2949,-648.0984 1116.795,-658.0984 1123.795,-658.0984"/>
<text text-anchor="middle" x="1133.1308" y="-670.1091" font-family="Times,serif" font-size="14.00" fill="#000000">STR</text>
</g>
<!-- 5 -->
<g id="node6" class="node">
<title>5</title>
<ellipse fill="none" stroke="#000000" cx="218.2949" cy="-606.6141" rx="214.0901" ry="29.3315"/>
<text text-anchor="middle" x="218.2949" y="-610.8141" font-family="Times,serif" font-size="14.00" fill="#000000">5</text>
<text text-anchor="middle" x="218.2949" y="-594.0141" font-family="Times,serif" font-size="14.00" fill="#000000">STAG -&gt; START_TABLE BODY . END_TABLE</text>
</g>
<!-- 1&#45;&gt;5 -->
<g id="edge5" class="edge">
<title>1-&gt;5</title>
<path fill="none" stroke="#000000" stroke-dasharray="5,2" d="M911.5651,-723.3109C737.1205,-716.2981 502.5617,-703.4311 410.6385,-682.7091 367.707,-673.0312 321.8012,-655.1812 285.607,-639.2008"/>
<polygon fill="#000000" stroke="#000000" points="286.7031,-635.857 276.1456,-634.9687 283.8449,-642.2469 286.7031,-635.857"/>
<text text-anchor="middle" x="431.1231" y="-670.1091" font-family="Times,serif" font-size="14.00" fill="#000000">BODY</text>
</g>
<!-- 6 -->
<g id="node7" class="node">
<title>6</title>
<ellipse fill="none" stroke="#000000" cx="2482.2949" cy="-606.6141" rx="88.1706" ry="29.3315"/>
<text text-anchor="middle" x="2482.2949" y="-610.8141" font-family="Times,serif" font-size="14.00" fill="#000000">6</text>
<text text-anchor="middle" x="2482.2949" y="-594.0141" font-family="Times,serif" font-size="14.00" fill="#000000">$accept -&gt; T $end .</text>
</g>
<!-- 2&#45;&gt;6 -->
<g id="edge6" class="edge">
<title>2-&gt;6</title>
<path fill="none" stroke="#000000" d="M2009.8521,-709.038C2021.5046,-705.739 2033.6827,-702.751 2045.2949,-700.7091 2118.7203,-687.7981 2310.1947,-708.0849 2380.2949,-682.7091 2404.6152,-673.9054 2428.023,-657.24 2446.2668,-641.7444"/>
<polygon fill="#000000" stroke="#000000" points="2449.0505,-643.9593 2454.2705,-634.7396 2444.4404,-638.6918 2449.0505,-643.9593"/>
<text text-anchor="middle" x="2424.9022" y="-670.1091" font-family="Times,serif" font-size="14.00" fill="#000000">$end</text>
</g>
<!-- 7 -->
<g id="node8" class="node">
<title>7</title>
<ellipse fill="none" stroke="#000000" cx="1017.2949" cy="-288.3164" rx="133.4153" ry="29.3315"/>
<text text-anchor="middle" x="1017.2949" y="-292.5164" font-family="Times,serif" font-size="14.00" fill="#000000">7</text>
<text text-anchor="middle" x="1017.2949" y="-275.7164" font-family="Times,serif" font-size="14.00" fill="#000000">BODY1 -&gt; STH . DATA ETH</text>
</g>
<!-- 4&#45;&gt;7 -->
<g id="edge7" class="edge">
<title>4-&gt;7</title>
<path fill="none" stroke="#000000" d="M1108.9841,-565.41C1096.3448,-520.2126 1074.8172,-445.6789 1053.2949,-382.4114 1047.0793,-364.1398 1039.5336,-344.1378 1032.9592,-327.2917"/>
<polygon fill="#000000" stroke="#000000" points="1036.1339,-325.8008 1029.2179,-317.7746 1029.6192,-328.3618 1036.1339,-325.8008"/>
<text text-anchor="middle" x="1106.5158" y="-443.2653" font-family="Times,serif" font-size="14.00" fill="#000000">STH</text>
</g>
<!-- 8 -->
<g id="node9" class="node">
<title>8</title>
<ellipse fill="none" stroke="#000000" cx="732.2949" cy="-288.3164" rx="133.4153" ry="29.3315"/>
<text text-anchor="middle" x="732.2949" y="-292.5164" font-family="Times,serif" font-size="14.00" fill="#000000">8</text>
<text text-anchor="middle" x="732.2949" y="-275.7164" font-family="Times,serif" font-size="14.00" fill="#000000">BODY1 -&gt; STD . DATA ETD</text>
</g>
<!-- 4&#45;&gt;8 -->
<g id="edge8" class="edge">
<title>4-&gt;8</title>
<path fill="none" stroke="#000000" d="M1071.939,-566.9451C995.4569,-504.2026 847.8041,-383.0749 775.0038,-323.3528"/>
<polygon fill="#000000" stroke="#000000" points="776.8798,-320.3648 766.9286,-316.7283 772.4401,-325.7767 776.8798,-320.3648"/>
<text text-anchor="middle" x="1015.5158" y="-443.2653" font-family="Times,serif" font-size="14.00" fill="#000000">STD</text>
</g>
<!-- 9 -->
<g id="node10" class="node">
<title>9</title>
<ellipse fill="none" stroke="#000000" cx="1508.2949" cy="-447.4653" rx="168.8472" ry="65.1077"/>
<text text-anchor="middle" x="1508.2949" y="-476.8653" font-family="Times,serif" font-size="14.00" fill="#000000">9</text>
<text text-anchor="middle" x="1508.2949" y="-460.0653" font-family="Times,serif" font-size="14.00" fill="#000000">BODY -&gt; STR BODY1 . ETR</text>
<text text-anchor="middle" x="1508.2949" y="-443.2653" font-family="Times,serif" font-size="14.00" fill="#000000">BODY -&gt; STR BODY1 . ETR BODY</text>
<text text-anchor="middle" x="1508.2949" y="-426.4653" font-family="Times,serif" font-size="14.00" fill="#000000">BODY1 -&gt; BODY1 . STD DATA ETD</text>
<text text-anchor="middle" x="1508.2949" y="-409.6653" font-family="Times,serif" font-size="14.00" fill="#000000">BODY1 -&gt; BODY1 . STH DATA ETH</text>
</g>
<!-- 4&#45;&gt;9 -->
<g id="edge9" class="edge">
<title>4-&gt;9</title>
<path fill="none" stroke="#000000" stroke-dasharray="5,2" d="M1261.8775,-585.8191C1322.3126,-575.3041 1384.9449,-561.7296 1411.2949,-547.3191 1425.7821,-539.3962 1439.4453,-528.5903 1451.6925,-517.0045"/>
<polygon fill="#000000" stroke="#000000" points="1454.4422,-519.2101 1459.1299,-509.7087 1449.5402,-514.213 1454.4422,-519.2101"/>
<text text-anchor="middle" x="1457.6231" y="-534.7191" font-family="Times,serif" font-size="14.00" fill="#000000">BODY1</text>
</g>
<!-- 10 -->
<g id="node11" class="node">
<title>10</title>
<ellipse fill="none" stroke="#000000" cx="214.2949" cy="-447.4653" rx="214.0901" ry="29.3315"/>
<text text-anchor="middle" x="214.2949" y="-451.6653" font-family="Times,serif" font-size="14.00" fill="#000000">10</text>
<text text-anchor="middle" x="214.2949" y="-434.8653" font-family="Times,serif" font-size="14.00" fill="#000000">STAG -&gt; START_TABLE BODY END_TABLE .</text>
</g>
<!-- 5&#45;&gt;10 -->
<g id="edge10" class="edge">
<title>5-&gt;10</title>
<path fill="none" stroke="#000000" d="M217.5519,-577.0524C216.9169,-551.7847 215.9974,-515.2029 215.2973,-487.3458"/>
<polygon fill="#000000" stroke="#000000" points="218.791,-487.0471 215.0407,-477.1382 211.7932,-487.2231 218.791,-487.0471"/>
<text text-anchor="middle" x="257.7283" y="-534.7191" font-family="Times,serif" font-size="14.00" fill="#000000">END_TABLE</text>
</g>
<!-- 7&#45;&gt;1 -->
<g id="edge11" class="edge">
<title>7-&gt;1</title>
<path fill="none" stroke="#000000" d="M998.8132,-317.4549C960.3476,-382.1721 880.6673,-540.627 948.2949,-647.9091 962.8351,-670.9751 985.8293,-687.7097 1010.3307,-699.7993"/>
<polygon fill="#000000" stroke="#000000" points="1008.8717,-702.9807 1019.4128,-704.0462 1011.8369,-696.6398 1008.8717,-702.9807"/>
<text text-anchor="middle" x="971.5109" y="-534.7191" font-family="Times,serif" font-size="14.00" fill="#000000">START_TABLE</text>
</g>
<!-- 11 -->
<g id="node12" class="node">
<title>11</title>
<ellipse fill="none" stroke="#000000" cx="1385.2949" cy="-152.9263" rx="93.7294" ry="29.3315"/>
<text text-anchor="middle" x="1385.2949" y="-157.1263" font-family="Times,serif" font-size="14.00" fill="#000000">11</text>
<text text-anchor="middle" x="1385.2949" y="-140.3263" font-family="Times,serif" font-size="14.00" fill="#000000">DATA -&gt; ALNUM .</text>
</g>
<!-- 7&#45;&gt;11 -->
<g id="edge12" class="edge">
<title>7-&gt;11</title>
<path fill="none" stroke="#000000" d="M1095.0875,-264.3599C1115.8515,-258.3318 1138.3425,-252.1297 1159.2949,-247.0214 1199.3497,-237.2557 1213.4228,-247.4659 1250.2949,-229.0214 1260.282,-224.0255 1259.7735,-218.5442 1268.9779,-212.2214 1285.3649,-200.9645 1304.1772,-190.4607 1321.8292,-181.5154"/>
<polygon fill="#000000" stroke="#000000" points="1323.5419,-184.5726 1330.9353,-176.9839 1320.4233,-178.3056 1323.5419,-184.5726"/>
<text text-anchor="middle" x="1294.9534" y="-216.4214" font-family="Times,serif" font-size="14.00" fill="#000000">ALNUM</text>
</g>
<!-- 12 -->
<g id="node13" class="node">
<title>12</title>
<ellipse fill="none" stroke="#000000" cx="1004.2949" cy="-152.9263" rx="84.5192" ry="29.3315"/>
<text text-anchor="middle" x="1004.2949" y="-157.1263" font-family="Times,serif" font-size="14.00" fill="#000000">12</text>
<text text-anchor="middle" x="1004.2949" y="-140.3263" font-family="Times,serif" font-size="14.00" fill="#000000">DATA -&gt; DIGIT .</text>
</g>
<!-- 7&#45;&gt;12 -->
<g id="edge13" class="edge">
<title>7-&gt;12</title>
<path fill="none" stroke="#000000" d="M937.0958,-264.6487C920.8864,-256.0681 905.8708,-244.5124 896.2079,-229.0214 892.2562,-222.6861 892.4042,-218.6465 896.2079,-212.2214 904.7859,-197.7317 918.2994,-186.5479 932.9049,-178.0065"/>
<polygon fill="#000000" stroke="#000000" points="934.979,-180.8635 942.1056,-173.0237 931.6456,-174.7082 934.979,-180.8635"/>
<text text-anchor="middle" x="915.3384" y="-216.4214" font-family="Times,serif" font-size="14.00" fill="#000000">DIGIT</text>
</g>
<!-- 13 -->
<g id="node14" class="node">
<title>13</title>
<ellipse fill="none" stroke="#000000" cx="1190.2949" cy="-152.9263" rx="83.3433" ry="29.3315"/>
<text text-anchor="middle" x="1190.2949" y="-157.1263" font-family="Times,serif" font-size="14.00" fill="#000000">13</text>
<text text-anchor="middle" x="1190.2949" y="-140.3263" font-family="Times,serif" font-size="14.00" fill="#000000">DATA -&gt; STAG .</text>
</g>
<!-- 7&#45;&gt;13 -->
<g id="edge14" class="edge">
<title>7-&gt;13</title>
<path fill="none" stroke="#000000" stroke-dasharray="5,2" d="M1009.3312,-258.6588C1007.0384,-243.2274 1007.4656,-224.9755 1017.7465,-212.2214 1040.7675,-183.6622 1063.485,-205.791 1098.2949,-194.2214 1109.5871,-190.4682 1121.3684,-185.797 1132.5829,-180.9599"/>
<polygon fill="#000000" stroke="#000000" points="1134.1095,-184.112 1141.8467,-176.8742 1131.2847,-177.7072 1134.1095,-184.112"/>
<text text-anchor="middle" x="1036.5691" y="-216.4214" font-family="Times,serif" font-size="14.00" fill="#000000">STAG</text>
</g>
<!-- 14 -->
<g id="node15" class="node">
<title>14</title>
<ellipse fill="none" stroke="#000000" cx="768.2949" cy="-152.9263" rx="133.4153" ry="41.0911"/>
<text text-anchor="middle" x="768.2949" y="-165.5263" font-family="Times,serif" font-size="14.00" fill="#000000">14</text>
<text text-anchor="middle" x="768.2949" y="-148.7263" font-family="Times,serif" font-size="14.00" fill="#000000">BODY1 -&gt; STH DATA . ETH</text>
<text text-anchor="middle" x="768.2949" y="-131.9263" font-family="Times,serif" font-size="14.00" fill="#000000">DATA -&gt; DATA . STAG</text>
</g>
<!-- 7&#45;&gt;14 -->
<g id="edge15" class="edge">
<title>7-&gt;14</title>
<path fill="none" stroke="#000000" stroke-dasharray="5,2" d="M939.7608,-264.3015C918.644,-258.2066 895.6912,-251.9862 874.2949,-247.0214 851.9009,-241.825 787.6682,-246.2278 772.4225,-229.0214 766.3013,-222.1128 763.2098,-213.3183 761.9514,-204.1788"/>
<polygon fill="#000000" stroke="#000000" points="765.4426,-203.9285 761.2487,-194.199 758.4599,-204.4202 765.4426,-203.9285"/>
<text text-anchor="middle" x="792.7311" y="-216.4214" font-family="Times,serif" font-size="14.00" fill="#000000">DATA</text>
</g>
<!-- 8&#45;&gt;1 -->
<g id="edge16" class="edge">
<title>8-&gt;1</title>
<path fill="none" stroke="#000000" d="M738.1528,-318.102C748.953,-368.261 775.2676,-471.5241 821.8629,-547.3191 835.2499,-569.0952 919.4637,-660.8871 959.2949,-682.7091 972.3966,-689.8871 986.708,-696.0917 1001.2191,-701.425"/>
<polygon fill="#000000" stroke="#000000" points="1000.1783,-704.7693 1010.7731,-704.8054 1002.5132,-698.1702 1000.1783,-704.7693"/>
<text text-anchor="middle" x="870.5109" y="-534.7191" font-family="Times,serif" font-size="14.00" fill="#000000">START_TABLE</text>
</g>
<!-- 8&#45;&gt;11 -->
<g id="edge17" class="edge">
<title>8-&gt;11</title>
<path fill="none" stroke="#000000" d="M805.788,-263.72C827.8966,-257.2407 852.3751,-250.9658 875.2949,-247.0214 941.3325,-235.6564 1114.4737,-254.872 1176.2949,-229.0214 1186.5974,-224.7134 1185.011,-217.2572 1194.9779,-212.2214 1230.3437,-194.3528 1244.3521,-205.6391 1282.2949,-194.2214 1295.0114,-190.3947 1308.3472,-185.635 1321.047,-180.722"/>
<polygon fill="#000000" stroke="#000000" points="1322.5959,-183.8735 1330.6139,-176.948 1320.0271,-177.3619 1322.5959,-183.8735"/>
<text text-anchor="middle" x="1220.9534" y="-216.4214" font-family="Times,serif" font-size="14.00" fill="#000000">ALNUM</text>
</g>
<!-- 8&#45;&gt;12 -->
<g id="edge18" class="edge">
<title>8-&gt;12</title>
<path fill="none" stroke="#000000" d="M771.0335,-260.0159C793.8163,-244.3384 823.6723,-225.4115 852.2079,-212.2214 876.7414,-200.8812 884.9735,-203.6719 910.2949,-194.2214 921.3845,-190.0825 933.0459,-185.3122 944.2363,-180.5165"/>
<polygon fill="#000000" stroke="#000000" points="945.7222,-183.6871 953.5025,-176.4955 942.9357,-177.2656 945.7222,-183.6871"/>
<text text-anchor="middle" x="871.3384" y="-216.4214" font-family="Times,serif" font-size="14.00" fill="#000000">DIGIT</text>
</g>
<!-- 8&#45;&gt;13 -->
<g id="edge19" class="edge">
<title>8-&gt;13</title>
<path fill="none" stroke="#000000" stroke-dasharray="5,2" d="M813.1841,-264.8877C866.7447,-249.3223 928.2326,-231.3312 934.2949,-229.0214 950.5883,-222.8134 953.0428,-217.2211 969.7465,-212.2214 1025.0139,-195.6789 1042.8598,-210.1927 1098.2949,-194.2214 1109.9923,-190.8512 1122.1223,-186.2655 1133.5871,-181.373"/>
<polygon fill="#000000" stroke="#000000" points="1135.2959,-184.4449 1143.0369,-177.2112 1132.4744,-178.0387 1135.2959,-184.4449"/>
<text text-anchor="middle" x="988.5691" y="-216.4214" font-family="Times,serif" font-size="14.00" fill="#000000">STAG</text>
</g>
<!-- 15 -->
<g id="node16" class="node">
<title>15</title>
<ellipse fill="none" stroke="#000000" cx="483.2949" cy="-152.9263" rx="133.4153" ry="41.0911"/>
<text text-anchor="middle" x="483.2949" y="-165.5263" font-family="Times,serif" font-size="14.00" fill="#000000">15</text>
<text text-anchor="middle" x="483.2949" y="-148.7263" font-family="Times,serif" font-size="14.00" fill="#000000">BODY1 -&gt; STD DATA . ETD</text>
<text text-anchor="middle" x="483.2949" y="-131.9263" font-family="Times,serif" font-size="14.00" fill="#000000">DATA -&gt; DATA . STAG</text>
</g>
<!-- 8&#45;&gt;15 -->
<g id="edge20" class="edge">
<title>8-&gt;15</title>
<path fill="none" stroke="#000000" stroke-dasharray="5,2" d="M681.9061,-260.9182C646.4993,-241.6663 598.5193,-215.5779 558.5879,-193.8657"/>
<polygon fill="#000000" stroke="#000000" points="560.1321,-190.7215 549.6748,-189.0194 556.7882,-196.8712 560.1321,-190.7215"/>
<text text-anchor="middle" x="642.7311" y="-216.4214" font-family="Times,serif" font-size="14.00" fill="#000000">DATA</text>
</g>
<!-- 16 -->
<g id="node17" class="node">
<title>16</title>
<ellipse fill="none" stroke="#000000" cx="1337.2949" cy="-288.3164" rx="168.8472" ry="29.3315"/>
<text text-anchor="middle" x="1337.2949" y="-292.5164" font-family="Times,serif" font-size="14.00" fill="#000000">16</text>
<text text-anchor="middle" x="1337.2949" y="-275.7164" font-family="Times,serif" font-size="14.00" fill="#000000">BODY1 -&gt; BODY1 STH . DATA ETH</text>
</g>
<!-- 9&#45;&gt;16 -->
<g id="edge21" class="edge">
<title>9-&gt;16</title>
<path fill="none" stroke="#000000" d="M1443.6472,-387.2979C1420.836,-366.0677 1395.9159,-342.8746 1375.9357,-324.2792"/>
<polygon fill="#000000" stroke="#000000" points="1378.2394,-321.6419 1368.5346,-317.391 1373.4703,-326.766 1378.2394,-321.6419"/>
<text text-anchor="middle" x="1431.5158" y="-351.8114" font-family="Times,serif" font-size="14.00" fill="#000000">STH</text>
</g>
<!-- 17 -->
<g id="node18" class="node">
<title>17</title>
<ellipse fill="none" stroke="#000000" cx="1693.2949" cy="-288.3164" rx="168.8472" ry="29.3315"/>
<text text-anchor="middle" x="1693.2949" y="-292.5164" font-family="Times,serif" font-size="14.00" fill="#000000">17</text>
<text text-anchor="middle" x="1693.2949" y="-275.7164" font-family="Times,serif" font-size="14.00" fill="#000000">BODY1 -&gt; BODY1 STD . DATA ETD</text>
</g>
<!-- 9&#45;&gt;17 -->
<g id="edge22" class="edge">
<title>9-&gt;17</title>
<path fill="none" stroke="#000000" d="M1557.1712,-384.9126C1568.8042,-371.845 1581.6857,-358.688 1594.8531,-347.6114 1605.9557,-338.2718 1618.6939,-329.4538 1631.2426,-321.6145"/>
<polygon fill="#000000" stroke="#000000" points="1633.1616,-324.5438 1639.8775,-316.3494 1629.5174,-318.5672 1633.1616,-324.5438"/>
<text text-anchor="middle" x="1608.5158" y="-351.8114" font-family="Times,serif" font-size="14.00" fill="#000000">STD</text>
</g>
<!-- 18 -->
<g id="node19" class="node">
<title>18</title>
<ellipse fill="none" stroke="#000000" cx="2043.2949" cy="-288.3164" rx="163.3785" ry="41.0911"/>
<text text-anchor="middle" x="2043.2949" y="-300.9164" font-family="Times,serif" font-size="14.00" fill="#000000">18</text>
<text text-anchor="middle" x="2043.2949" y="-284.1164" font-family="Times,serif" font-size="14.00" fill="#000000">BODY -&gt; STR BODY1 ETR .</text>
<text text-anchor="middle" x="2043.2949" y="-267.3164" font-family="Times,serif" font-size="14.00" fill="#000000">BODY -&gt; STR BODY1 ETR . BODY</text>
</g>
<!-- 9&#45;&gt;18 -->
<g id="edge23" class="edge">
<title>9-&gt;18</title>
<path fill="none" stroke="#000000" d="M1587.1578,-389.6484C1613.2228,-373.3315 1643.1737,-357.3788 1672.8531,-347.6114 1756.9734,-319.9278 1783.911,-343.9864 1871.2949,-329.6114 1886.9788,-327.0314 1903.3515,-323.8066 1919.4934,-320.3033"/>
<polygon fill="#000000" stroke="#000000" points="1920.4975,-323.6658 1929.506,-318.0892 1918.9861,-316.831 1920.4975,-323.6658"/>
<text text-anchor="middle" x="1686.5158" y="-351.8114" font-family="Times,serif" font-size="14.00" fill="#000000">ETR</text>
</g>
<!-- 14&#45;&gt;1 -->
<g id="edge24" class="edge">
<title>14-&gt;1</title>
<path fill="none" stroke="#000000" d="M671.1217,-181.596C639.7522,-195.9648 608.4243,-216.9312 590.2949,-247.0214 527.6242,-351.0389 583.3993,-414.3344 654.8629,-512.5191 732.6804,-619.4334 876.4515,-675.4947 983.6944,-703.7468"/>
<polygon fill="#000000" stroke="#000000" points="983.0709,-707.2005 993.6284,-706.3121 984.8212,-700.4228 983.0709,-707.2005"/>
<text text-anchor="middle" x="703.5109" y="-443.2653" font-family="Times,serif" font-size="14.00" fill="#000000">START_TABLE</text>
</g>
<!-- 19 -->
<g id="node20" class="node">
<title>19</title>
<ellipse fill="none" stroke="#000000" cx="768.2949" cy="-29.4156" rx="133.4153" ry="29.3315"/>
<text text-anchor="middle" x="768.2949" y="-33.6156" font-family="Times,serif" font-size="14.00" fill="#000000">19</text>
<text text-anchor="middle" x="768.2949" y="-16.8156" font-family="Times,serif" font-size="14.00" fill="#000000">BODY1 -&gt; STH DATA ETH .</text>
</g>
<!-- 14&#45;&gt;19 -->
<g id="edge25" class="edge">
<title>14-&gt;19</title>
<path fill="none" stroke="#000000" d="M768.2949,-111.4555C768.2949,-97.7175 768.2949,-82.473 768.2949,-68.8894"/>
<polygon fill="#000000" stroke="#000000" points="771.795,-68.8781 768.2949,-58.8781 764.795,-68.8782 771.795,-68.8781"/>
<text text-anchor="middle" x="781.9008" y="-81.0313" font-family="Times,serif" font-size="14.00" fill="#000000">ETH</text>
</g>
<!-- 20 -->
<g id="node21" class="node">
<title>20</title>
<ellipse fill="none" stroke="#000000" cx="1372.2949" cy="-29.4156" rx="113.267" ry="29.3315"/>
<text text-anchor="middle" x="1372.2949" y="-33.6156" font-family="Times,serif" font-size="14.00" fill="#000000">20</text>
<text text-anchor="middle" x="1372.2949" y="-16.8156" font-family="Times,serif" font-size="14.00" fill="#000000">DATA -&gt; DATA STAG .</text>
</g>
<!-- 14&#45;&gt;20 -->
<g id="edge26" class="edge">
<title>14-&gt;20</title>
<path fill="none" stroke="#000000" stroke-dasharray="5,2" d="M862.1066,-123.4C878.0793,-119.0199 894.5832,-114.8907 910.2949,-111.6313 972.5849,-98.7094 989.5124,-103.8962 1052.2949,-93.6313 1127.6698,-81.3075 1212.3833,-64.1591 1275.7059,-50.683"/>
<polygon fill="#000000" stroke="#000000" points="1276.6319,-54.0643 1285.6804,-48.553 1275.17,-47.2186 1276.6319,-54.0643"/>
<text text-anchor="middle" x="1159.5691" y="-81.0313" font-family="Times,serif" font-size="14.00" fill="#000000">STAG</text>
</g>
<!-- 15&#45;&gt;1 -->
<g id="edge27" class="edge">
<title>15-&gt;1</title>
<path fill="none" stroke="#000000" d="M474.4624,-194.1947C469.5007,-220.9066 464.2949,-256.5108 464.2949,-288.3164 464.2949,-606.6141 464.2949,-606.6141 464.2949,-606.6141 464.2949,-654.5272 738.0497,-692.0793 931.871,-712.662"/>
<polygon fill="#000000" stroke="#000000" points="931.5946,-716.1522 941.9066,-713.7202 932.3287,-709.1908 931.5946,-716.1522"/>
<text text-anchor="middle" x="512.5109" y="-443.2653" font-family="Times,serif" font-size="14.00" fill="#000000">START_TABLE</text>
</g>
<!-- 15&#45;&gt;20 -->
<g id="edge29" class="edge">
<title>15-&gt;20</title>
<path fill="none" stroke="#000000" stroke-dasharray="5,2" d="M576.9437,-123.3155C593.2744,-118.8908 610.1888,-114.7689 626.2949,-111.6313 702.1725,-96.8495 722.4384,-101.9361 799.2949,-93.6313 958.5755,-76.4201 1142.6529,-55.6306 1258.2687,-42.4639"/>
<polygon fill="#000000" stroke="#000000" points="1259.0078,-45.9024 1268.5473,-41.2929 1258.2154,-38.9474 1259.0078,-45.9024"/>
<text text-anchor="middle" x="959.5691" y="-81.0313" font-family="Times,serif" font-size="14.00" fill="#000000">STAG</text>
</g>
<!-- 21 -->
<g id="node22" class="node">
<title>21</title>
<ellipse fill="none" stroke="#000000" cx="483.2949" cy="-29.4156" rx="133.4153" ry="29.3315"/>
<text text-anchor="middle" x="483.2949" y="-33.6156" font-family="Times,serif" font-size="14.00" fill="#000000">21</text>
<text text-anchor="middle" x="483.2949" y="-16.8156" font-family="Times,serif" font-size="14.00" fill="#000000">BODY1 -&gt; STD DATA ETD .</text>
</g>
<!-- 15&#45;&gt;21 -->
<g id="edge28" class="edge">
<title>15-&gt;21</title>
<path fill="none" stroke="#000000" d="M483.2949,-111.4555C483.2949,-97.7175 483.2949,-82.473 483.2949,-68.8894"/>
<polygon fill="#000000" stroke="#000000" points="486.795,-68.8781 483.2949,-58.8781 479.795,-68.8782 486.795,-68.8781"/>
<text text-anchor="middle" x="496.9008" y="-81.0313" font-family="Times,serif" font-size="14.00" fill="#000000">ETD</text>
</g>
<!-- 16&#45;&gt;1 -->
<g id="edge30" class="edge">
<title>16-&gt;1</title>
<path fill="none" stroke="#000000" d="M1333.9603,-318.0226C1324.3764,-402.9613 1297.1303,-641.203 1292.2949,-647.9091 1275.9171,-670.6237 1251.577,-687.3044 1226.3268,-699.4585"/>
<polygon fill="#000000" stroke="#000000" points="1224.6288,-696.3866 1216.9959,-703.7343 1227.545,-702.7502 1224.6288,-696.3866"/>
<text text-anchor="middle" x="1357.5109" y="-534.7191" font-family="Times,serif" font-size="14.00" fill="#000000">START_TABLE</text>
</g>
<!-- 16&#45;&gt;11 -->
<g id="edge31" class="edge">
<title>16-&gt;11</title>
<path fill="none" stroke="#000000" d="M1410.2728,-261.7212C1423.8451,-253.3736 1436.2637,-242.6539 1444.2949,-229.0214 1452.8776,-214.4528 1445.4674,-199.5172 1433.3624,-186.779"/>
<polygon fill="#000000" stroke="#000000" points="1435.4322,-183.9167 1425.778,-179.5522 1430.6033,-188.9845 1435.4322,-183.9167"/>
<text text-anchor="middle" x="1473.9534" y="-216.4214" font-family="Times,serif" font-size="14.00" fill="#000000">ALNUM</text>
</g>
<!-- 16&#45;&gt;12 -->
<g id="edge32" class="edge">
<title>16-&gt;12</title>
<path fill="none" stroke="#000000" d="M1236.1509,-264.6279C1211.0513,-258.8111 1184.2061,-252.642 1159.2949,-247.0214 1122.8609,-238.8008 1109.781,-247.2973 1077.2079,-229.0214 1067.4526,-223.5479 1050.3824,-205.9434 1035.2105,-189.0448"/>
<polygon fill="#000000" stroke="#000000" points="1037.6613,-186.5334 1028.4063,-181.3764 1032.4253,-191.1793 1037.6613,-186.5334"/>
<text text-anchor="middle" x="1096.3384" y="-216.4214" font-family="Times,serif" font-size="14.00" fill="#000000">DIGIT</text>
</g>
<!-- 16&#45;&gt;13 -->
<g id="edge33" class="edge">
<title>16-&gt;13</title>
<path fill="none" stroke="#000000" stroke-dasharray="5,2" d="M1338.6963,-258.8959C1337.9547,-243.534 1334.5832,-225.2728 1324.2949,-212.2214 1311.7225,-196.2721 1300.8929,-202.3799 1282.2949,-194.2214 1272.2294,-189.8059 1261.5678,-185.0725 1251.2077,-180.4427"/>
<polygon fill="#000000" stroke="#000000" points="1252.3611,-177.1244 1241.8039,-176.2321 1249.5004,-183.5132 1252.3611,-177.1244"/>
<text text-anchor="middle" x="1351.5691" y="-216.4214" font-family="Times,serif" font-size="14.00" fill="#000000">STAG</text>
</g>
<!-- 22 -->
<g id="node23" class="node">
<title>22</title>
<ellipse fill="none" stroke="#000000" cx="2010.2949" cy="-152.9263" rx="168.8472" ry="41.0911"/>
<text text-anchor="middle" x="2010.2949" y="-165.5263" font-family="Times,serif" font-size="14.00" fill="#000000">22</text>
<text text-anchor="middle" x="2010.2949" y="-148.7263" font-family="Times,serif" font-size="14.00" fill="#000000">BODY1 -&gt; BODY1 STH DATA . ETH</text>
<text text-anchor="middle" x="2010.2949" y="-131.9263" font-family="Times,serif" font-size="14.00" fill="#000000">DATA -&gt; DATA . STAG</text>
</g>
<!-- 16&#45;&gt;22 -->
<g id="edge34" class="edge">
<title>16-&gt;22</title>
<path fill="none" stroke="#000000" stroke-dasharray="5,2" d="M1430.0258,-263.5979C1457.3113,-257.1975 1487.3421,-250.9955 1515.2949,-247.0214 1660.7172,-226.3462 1702.7363,-264.4072 1845.2949,-229.0214 1875.4149,-221.545 1906.7525,-208.577 1933.9236,-195.4424"/>
<polygon fill="#000000" stroke="#000000" points="1935.5443,-198.5458 1942.9707,-190.9894 1932.453,-192.2653 1935.5443,-198.5458"/>
<text text-anchor="middle" x="1912.7311" y="-216.4214" font-family="Times,serif" font-size="14.00" fill="#000000">DATA</text>
</g>
<!-- 17&#45;&gt;1 -->
<g id="edge35" class="edge">
<title>17-&gt;1</title>
<path fill="none" stroke="#000000" d="M1718.0866,-317.5086C1731.3504,-335.0805 1746.3504,-358.6043 1753.2949,-382.4114 1769.4877,-437.9236 1786.5494,-465.2122 1753.2949,-512.5191 1694.7329,-595.8278 1419.6779,-667.0577 1252.0011,-703.7017"/>
<polygon fill="#000000" stroke="#000000" points="1251.14,-700.3071 1242.111,-705.8502 1252.6261,-707.1475 1251.14,-700.3071"/>
<text text-anchor="middle" x="1784.5109" y="-534.7191" font-family="Times,serif" font-size="14.00" fill="#000000">START_TABLE</text>
</g>
<!-- 17&#45;&gt;11 -->
<g id="edge36" class="edge">
<title>17-&gt;11</title>
<path fill="none" stroke="#000000" d="M1630.9665,-260.9182C1578.0693,-237.6657 1502.4842,-204.4401 1449.1549,-180.9978"/>
<polygon fill="#000000" stroke="#000000" points="1450.3625,-177.7054 1439.7994,-176.8853 1447.5456,-184.1136 1450.3625,-177.7054"/>
<text text-anchor="middle" x="1583.9534" y="-216.4214" font-family="Times,serif" font-size="14.00" fill="#000000">ALNUM</text>
</g>
<!-- 17&#45;&gt;12 -->
<g id="edge37" class="edge">
<title>17-&gt;12</title>
<path fill="none" stroke="#000000" d="M1601.0419,-263.5757C1573.6348,-257.1339 1543.4192,-250.9153 1515.2949,-247.0214 1431.3156,-235.394 1212.7265,-260.9988 1134.2079,-229.0214 1123.7952,-224.7807 1124.5202,-218.648 1115.2949,-212.2214 1099.3372,-201.1047 1081.0563,-190.5497 1063.9972,-181.5099"/>
<polygon fill="#000000" stroke="#000000" points="1065.154,-178.1661 1054.6682,-176.6497 1061.9197,-184.3741 1065.154,-178.1661"/>
<text text-anchor="middle" x="1153.3384" y="-216.4214" font-family="Times,serif" font-size="14.00" fill="#000000">DIGIT</text>
</g>
<!-- 17&#45;&gt;13 -->
<g id="edge38" class="edge">
<title>17-&gt;13</title>
<path fill="none" stroke="#000000" stroke-dasharray="5,2" d="M1595.1577,-264.2904C1569.2608,-258.2958 1541.2873,-252.1274 1515.2949,-247.0214 1466.0184,-237.3413 1451.1037,-245.7301 1403.7465,-229.0214 1389.5357,-224.0074 1388.4206,-217.4707 1374.2949,-212.2214 1335.2403,-197.708 1322.004,-206.8344 1282.2949,-194.2214 1270.9537,-190.619 1259.1495,-186.0185 1247.9276,-181.2039"/>
<polygon fill="#000000" stroke="#000000" points="1249.2239,-177.9505 1238.6612,-177.1265 1246.4046,-184.3576 1249.2239,-177.9505"/>
<text text-anchor="middle" x="1422.5691" y="-216.4214" font-family="Times,serif" font-size="14.00" fill="#000000">STAG</text>
</g>
<!-- 23 -->
<g id="node24" class="node">
<title>23</title>
<ellipse fill="none" stroke="#000000" cx="2366.2949" cy="-152.9263" rx="168.8472" ry="41.0911"/>
<text text-anchor="middle" x="2366.2949" y="-165.5263" font-family="Times,serif" font-size="14.00" fill="#000000">23</text>
<text text-anchor="middle" x="2366.2949" y="-148.7263" font-family="Times,serif" font-size="14.00" fill="#000000">BODY1 -&gt; BODY1 STD DATA . ETD</text>
<text text-anchor="middle" x="2366.2949" y="-131.9263" font-family="Times,serif" font-size="14.00" fill="#000000">DATA -&gt; DATA . STAG</text>
</g>
<!-- 17&#45;&gt;23 -->
<g id="edge39" class="edge">
<title>17-&gt;23</title>
<path fill="none" stroke="#000000" stroke-dasharray="5,2" d="M1791.9153,-264.2723C1817.6815,-258.3103 1845.4712,-252.1622 1871.2949,-247.0214 2011.376,-219.135 2048.2138,-222.1077 2188.2949,-194.2214 2203.7542,-191.1438 2219.918,-187.7053 2235.9304,-184.1618"/>
<polygon fill="#000000" stroke="#000000" points="2236.8749,-187.5373 2245.8732,-181.9443 2235.3511,-180.7051 2236.8749,-187.5373"/>
<text text-anchor="middle" x="2104.7311" y="-216.4214" font-family="Times,serif" font-size="14.00" fill="#000000">DATA</text>
</g>
<!-- 18&#45;&gt;4 -->
<g id="edge40" class="edge">
<title>18-&gt;4</title>
<path fill="none" stroke="#000000" d="M1994.3265,-327.898C1928.449,-378.9861 1805.7155,-466.7351 1686.2949,-512.5191 1558.5398,-561.4984 1404.9385,-585.0066 1290.0037,-596.2763"/>
<polygon fill="#000000" stroke="#000000" points="1289.3249,-592.8253 1279.7046,-597.2636 1289.9929,-599.7933 1289.3249,-592.8253"/>
<text text-anchor="middle" x="1930.1308" y="-443.2653" font-family="Times,serif" font-size="14.00" fill="#000000">STR</text>
</g>
<!-- 24 -->
<g id="node25" class="node">
<title>24</title>
<ellipse fill="none" stroke="#000000" cx="1660.2949" cy="-152.9263" rx="163.3785" ry="29.3315"/>
<text text-anchor="middle" x="1660.2949" y="-157.1263" font-family="Times,serif" font-size="14.00" fill="#000000">24</text>
<text text-anchor="middle" x="1660.2949" y="-140.3263" font-family="Times,serif" font-size="14.00" fill="#000000">BODY -&gt; STR BODY1 ETR BODY .</text>
</g>
<!-- 18&#45;&gt;24 -->
<g id="edge41" class="edge">
<title>18-&gt;24</title>
<path fill="none" stroke="#000000" stroke-dasharray="5,2" d="M1924.4291,-259.9737C1871.1911,-247.035 1817.6373,-233.5845 1805.6385,-229.0214 1775.023,-217.3783 1742.5836,-200.84 1716.1372,-186.1541"/>
<polygon fill="#000000" stroke="#000000" points="1717.8427,-183.0977 1707.4094,-181.2544 1714.4159,-189.2017 1717.8427,-183.0977"/>
<text text-anchor="middle" x="1826.1231" y="-216.4214" font-family="Times,serif" font-size="14.00" fill="#000000">BODY</text>
</g>
<!-- 22&#45;&gt;1 -->
<g id="edge42" class="edge">
<title>22-&gt;1</title>
<path fill="none" stroke="#000000" d="M2133.7614,-181.1648C2185.6895,-201.0462 2234.2949,-234.1286 2234.2949,-288.3164 2234.2949,-606.6141 2234.2949,-606.6141 2234.2949,-606.6141 2234.2949,-651.7608 1648.6888,-696.3684 1326.6488,-717.486"/>
<polygon fill="#000000" stroke="#000000" points="1326.0026,-714.0206 1316.2522,-718.1655 1326.4592,-721.0057 1326.0026,-714.0206"/>
<text text-anchor="middle" x="2282.5109" y="-443.2653" font-family="Times,serif" font-size="14.00" fill="#000000">START_TABLE</text>
</g>
<!-- 22&#45;&gt;20 -->
<g id="edge44" class="edge">
<title>22-&gt;20</title>
<path fill="none" stroke="#000000" stroke-dasharray="5,2" d="M1892.4981,-123.1929C1872.4998,-118.8372 1851.8721,-114.7698 1832.2949,-111.6313 1744.3694,-97.5356 1720.573,-108.3321 1632.7465,-93.6313 1573.7521,-83.7565 1508.395,-67.6265 1457.9092,-54.0033"/>
<polygon fill="#000000" stroke="#000000" points="1458.5846,-50.56 1448.0166,-51.3147 1456.7486,-57.315 1458.5846,-50.56"/>
<text text-anchor="middle" x="1651.5691" y="-81.0313" font-family="Times,serif" font-size="14.00" fill="#000000">STAG</text>
</g>
<!-- 25 -->
<g id="node26" class="node">
<title>25</title>
<ellipse fill="none" stroke="#000000" cx="2010.2949" cy="-29.4156" rx="168.8472" ry="29.3315"/>
<text text-anchor="middle" x="2010.2949" y="-33.6156" font-family="Times,serif" font-size="14.00" fill="#000000">25</text>
<text text-anchor="middle" x="2010.2949" y="-16.8156" font-family="Times,serif" font-size="14.00" fill="#000000">BODY1 -&gt; BODY1 STH DATA ETH .</text>
</g>
<!-- 22&#45;&gt;25 -->
<g id="edge43" class="edge">
<title>22-&gt;25</title>
<path fill="none" stroke="#000000" d="M2010.2949,-111.4555C2010.2949,-97.7175 2010.2949,-82.473 2010.2949,-68.8894"/>
<polygon fill="#000000" stroke="#000000" points="2013.795,-68.8781 2010.2949,-58.8781 2006.795,-68.8782 2013.795,-68.8781"/>
<text text-anchor="middle" x="2023.9008" y="-81.0313" font-family="Times,serif" font-size="14.00" fill="#000000">ETH</text>
</g>
<!-- 23&#45;&gt;1 -->
<g id="edge45" class="edge">
<title>23-&gt;1</title>
<path fill="none" stroke="#000000" d="M2366.2949,-194.405C2366.2949,-221.2007 2366.2949,-256.8194 2366.2949,-288.3164 2366.2949,-606.6141 2366.2949,-606.6141 2366.2949,-606.6141 2366.2949,-657.9352 1688.0717,-700.7583 1332.3853,-719.6875"/>
<polygon fill="#000000" stroke="#000000" points="1332.0185,-716.202 1322.2179,-720.2268 1332.3893,-723.1921 1332.0185,-716.202"/>
<text text-anchor="middle" x="2414.5109" y="-443.2653" font-family="Times,serif" font-size="14.00" fill="#000000">START_TABLE</text>
</g>
<!-- 23&#45;&gt;20 -->
<g id="edge47" class="edge">
<title>23-&gt;20</title>
<path fill="none" stroke="#000000" stroke-dasharray="5,2" d="M2248.9987,-123.1664C2228.8482,-118.7865 2208.0409,-114.7181 2188.2949,-111.6313 2092.0029,-96.5785 2066.7721,-102.8397 1969.7465,-93.6313 1801.1774,-77.6329 1606.1915,-56.107 1486.0511,-42.4942"/>
<polygon fill="#000000" stroke="#000000" points="1486.4292,-39.0147 1476.0984,-41.3652 1485.6402,-45.9701 1486.4292,-39.0147"/>
<text text-anchor="middle" x="1988.5691" y="-81.0313" font-family="Times,serif" font-size="14.00" fill="#000000">STAG</text>
</g>
<!-- 26 -->
<g id="node27" class="node">
<title>26</title>
<ellipse fill="none" stroke="#000000" cx="2366.2949" cy="-29.4156" rx="168.8472" ry="29.3315"/>
<text text-anchor="middle" x="2366.2949" y="-33.6156" font-family="Times,serif" font-size="14.00" fill="#000000">26</text>
<text text-anchor="middle" x="2366.2949" y="-16.8156" font-family="Times,serif" font-size="14.00" fill="#000000">BODY1 -&gt; BODY1 STD DATA ETD .</text>
</g>
<!-- 23&#45;&gt;26 -->
<g id="edge46" class="edge">
<title>23-&gt;26</title>
<path fill="none" stroke="#000000" d="M2366.2949,-111.4555C2366.2949,-97.7175 2366.2949,-82.473 2366.2949,-68.8894"/>
<polygon fill="#000000" stroke="#000000" points="2369.795,-68.8781 2366.2949,-58.8781 2362.795,-68.8782 2369.795,-68.8781"/>
<text text-anchor="middle" x="2379.9008" y="-81.0313" font-family="Times,serif" font-size="14.00" fill="#000000">ETD</text>
</g>
</g>
</svg>